Coordinates
version=1
nRows=19
nColumns=36
inDegrees=yes

Units are S.I. units (second, meters, Newtons, ...)
If the header above contains a line with 'inDegrees', this indicates whether rotational values are in degrees (yes) or radians (no).

endheader
time	pelvis_tilt	pelvis_list	pelvis_rotation	pelvis_tx	pelvis_ty	pelvis_tz	hip_flexion_r	hip_adduction_r	hip_rotation_r	knee_angle_r	knee_angle_r_beta	ankle_angle_r	subtalar_angle_r	mtp_angle_r	hip_flexion_l	hip_adduction_l	hip_rotation_l	knee_angle_l	knee_angle_l_beta	ankle_angle_l	subtalar_angle_l	mtp_angle_l	lumbar_extension	lumbar_bending	lumbar_rotation	arm_flex_r	arm_add_r	arm_rot_r	elbow_flex_r	pro_sup_r	arm_flex_l	arm_add_l	arm_rot_l	elbow_flex_l	pro_sup_l
      4.44166670	     -2.15131809	      1.37020926	     -4.08977189	      0.20368390	      0.94197805	     -0.12175206	     16.11833699	     -4.18823230	      1.91391622	     20.65856477	      0.36055997	     15.23378433	    -15.23607903	     -7.49999987	     15.11622978	     -1.34248523	      0.77696281	     21.08912958	      0.36807475	     11.30139714	    -16.67858598	     -7.49999987	     -5.73832915	     -2.69320835	     -8.49612956	     -6.71185074	    -18.60361917	     -1.78993179	     13.73362041	     60.92940309	     16.31394528	    -16.50044481	     30.02166807	     15.76780078	     65.37606714
      4.44583330	     -1.91639192	      1.44383147	     -4.42166899	      0.20397418	      0.94038436	     -0.12226039	     15.87859161	     -4.36540774	      1.71166350	     20.48767038	      0.35757730	     15.03219288	    -15.18709346	     -7.49999987	     14.55629667	     -1.22050231	      0.65646741	     20.53494834	      0.35840246	     11.08658455	    -16.92772115	     -7.49999987	     -6.03980737	     -2.64437433	     -8.24802959	     -6.24071456	    -18.73539173	      0.79056865	     13.01268344	     61.55852446	     16.75432053	    -16.38539270	     32.22849341	     15.22092278	     66.17288940
      4.45000000	     -1.88325306	      1.47428825	     -4.77181225	      0.20128208	      0.94052956	     -0.12288190	     16.12509802	     -4.46893024	      1.72360592	     20.72686071	      0.36175196	     14.96551345	    -15.25561525	     -7.49999987	     14.33952063	     -1.19953960	      0.50653721	     20.15950798	      0.35184979	     11.43209197	    -16.47247526	     -7.49999987	     -6.29854053	     -2.49318335	     -8.08164859	     -5.87467114	    -18.59251464	      0.89418206	     12.69208258	     61.12275614	     16.90840531	    -16.18288267	     31.99830229	     15.23633265	     65.40291472
      4.45416670	     -1.86698151	      1.50532769	     -5.13999288	      0.20102653	      0.94320378	     -0.12266004	     16.30142391	     -4.57475847	      1.65393163	     20.83052211	      0.36356120	     14.65361221	    -15.41720135	     -7.49999987	     14.05435646	     -1.18179400	      0.41546850	     19.57397974	      0.34163039	     11.21844128	    -16.53770828	     -7.49999987	     -6.35278546	     -2.33204829	     -7.99195171	     -5.53003522	    -18.43987052	      0.92815608	     12.33027304	     61.00093071	     16.97046739	    -15.98948951	     31.98738901	     15.04991901	     65.29365128
      4.45833330	     -1.49865194	      1.48290567	     -5.49867031	      0.20105100	      0.94976702	     -0.12205237	     15.69526624	     -4.62660916	      1.55073120	     20.33917253	      0.35498553	     14.03237535	    -15.38585329	     -7.49999987	     13.22993723	     -1.21787450	      0.15049122	     18.77452581	      0.32767729	     10.84320768	    -16.29724927	     -7.49999987	     -6.69205011	     -2.24757612	     -8.14014822	     -5.48281630	    -18.13544434	      6.86905120	     10.44017200	     59.66696510	     17.17766830	    -16.06435125	     35.16038681	     14.31746802	     64.57180693
      4.46250000	     -1.10012232	      1.49606870	     -5.90397765	      0.20038422	      0.94697298	     -0.12336988	     15.28189893	     -4.87067523	      1.14848356	     20.16856656	      0.35200789	     13.46329860	    -16.07702679	     -7.49999987	     12.46732573	     -1.16154691	     -0.26624547	     18.19143152	      0.31750038	     10.71500154	    -16.48519523	     -7.49999987	     -7.03104110	     -2.18151915	     -8.30216874	     -6.54026831	    -17.40647154	     13.34781500	      8.82418489	     53.73082820	     17.41388168	    -16.12114525	     38.07614259	     13.77358720	     60.95050941
      4.46666670	     -0.62613851	      1.38475571	     -6.24488260	      0.19969092	      0.94822110	     -0.12179799	     14.65272115	     -4.87512439	      0.73692641	     19.81728412	      0.34587686	     12.72659657	    -17.18491393	     -7.49999987	     11.57456549	     -1.27594274	     -0.49519676	     17.52174376	      0.30581212	     10.46415745	    -16.76203073	     -7.49999987	     -7.55729506	     -2.04366455	     -8.45699369	     -7.92120852	    -16.46193886	     15.16731868	      7.82312513	     54.59858738	     17.56376012	    -16.25584789	     38.28729800	     13.66318902	     61.11506307
      4.47083330	     -0.32464106	      1.40051681	     -6.55696216	      0.20128080	      0.94960830	     -0.12147786	     14.24497967	     -5.01089094	      0.37895897	     19.66272810	      0.34317935	     12.10108009	    -17.98048896	     -7.49999987	     10.90687210	     -1.26481348	     -0.77812453	     17.05044515	      0.29758641	     10.30037052	    -16.69803632	     -7.49999987	     -7.65923429	     -2.00024059	     -8.78430228	     -8.85424806	    -15.82450691	     19.77420192	      6.52214566	     55.46070035	     17.54266069	    -16.38865360	     39.89859429	     13.16309931	     61.09572847
      4.47500000	      0.19102289	      1.34828929	     -6.90720548	      0.20121738	      0.95174094	     -0.11958663	     13.49805985	     -5.02788195	      0.17173219	     19.22841463	      0.33559915	     11.50129553	    -18.73435753	     -7.49999987	      9.91595430	     -1.32488961	     -1.11529031	     16.42295194	      0.28663458	     10.19751214	    -16.42450959	     -7.49999987	     -8.18627084	     -1.95690237	     -8.78119127	     -9.69466806	    -15.17260649	     21.29954703	      5.99075399	     55.63715264	     17.58707256	    -16.51541289	     39.76945884	     13.30211282	     60.78029141
      4.47916670	      0.53189177	      1.32410302	     -7.13600939	      0.20053846	      0.95264917	     -0.11899655	     12.90398082	     -5.08899884	     -0.30600532	     18.78808375	      0.32791392	     11.10930799	    -19.27109414	     -7.49999987	      9.26777975	     -1.43197206	     -1.39337518	     15.95246866	      0.27842310	     10.00650456	    -16.42642554	     -7.49999987	     -8.55868061	     -1.91976432	     -8.89153733	     -9.79553454	    -14.99310696	     29.15119038	      5.55858912	     50.32430772	     18.00660419	    -16.69668834	     44.39918451	     12.69280575	     56.23384998
      4.48333330	      0.85480988	      1.33292327	     -7.41200277	      0.19927028	      0.95504593	     -0.11823189	     12.39258057	     -5.18295120	     -0.84909473	     18.32274370	      0.31979221	     10.43321808	    -20.17684657	     -7.49999987	      8.59819340	     -1.46862549	     -1.75410466	     15.32393427	      0.26745311	      9.68430014	    -16.37760088	     -7.49999987	     -9.10472384	     -1.88649884	     -8.75732683	     -9.55607105	    -14.87316514	     31.36250449	      5.47450573	     51.67305713	     18.22542696	    -16.76895109	     44.26834612	     12.96613245	     56.81793395
      4.48750000	      1.14801544	      1.32692181	     -7.68273096	      0.19835396	      0.95349510	     -0.11726837	     12.04052380	     -5.28719682	     -1.65657876	     18.09508391	      0.31581879	     10.08028526	    -20.72928350	     -7.49999987	      8.09854308	     -1.53901042	     -2.24413604	     14.98258390	      0.26149542	      9.69364200	    -16.03937707	     -7.49999987	     -9.68336201	     -1.86005380	     -8.61010115	     -9.00527845	    -14.87356536	     34.84199330	      5.26785100	     53.18301738	     18.63629211	    -16.92805453	     45.03341290	     13.29354247	     57.54606005
      4.49166670	      1.54632596	      1.23860396	     -7.94561356	      0.19759726	      0.95618951	     -0.11639600	     11.60899989	     -5.30901423	     -2.49701749	     17.99680595	      0.31410352	      9.36073495	    -21.44136599	     -7.49999987	      7.44670463	     -1.67230912	     -2.69653728	     14.49918566	      0.25305853	      9.51725381	    -15.85273696	     -7.49999987	    -10.41170964	     -1.79131333	     -8.39989891	     -8.55805411	    -14.77465215	     36.20246415	      5.39647214	     53.14553265	     19.05115735	    -17.03543888	     44.95645506	     13.66633535	     57.42815460
      4.49583330	      1.86184849	      1.16004828	     -8.17055162	      0.19774792	      0.95523359	     -0.11581381	     11.34358100	     -5.39107637	     -3.21676054	     18.12966507	      0.31642235	      8.56850394	    -22.35362068	     -7.49999987	      6.89920330	     -1.77579605	     -3.06643009	     14.10535722	      0.24618493	      9.41646617	    -15.64701885	     -7.49999987	    -11.03421733	     -1.68268671	     -8.16951755	     -7.96142305	    -14.89294136	     37.80387925	      5.51318678	     53.94004790	     19.40150578	    -17.07173996	     44.75057386	     14.13650193	     57.70697465
      4.50000000	      2.03160906	      1.09592807	     -8.47424776	      0.19544409	      0.96088100	     -0.11491145	     11.22496239	     -5.50401430	     -3.97935803	     17.90368191	      0.31247820	      7.56682045	    -23.03665752	     -7.49999987	      6.46822184	     -1.92421968	     -3.58189885	     13.63400884	      0.23795834	      8.89023209	    -15.58061721	     -7.49999987	    -11.40872702	     -1.70074285	     -8.07595899	     -7.15747220	    -15.03708276	     43.94714037	      5.57466307	     52.61031700	     19.99838183	    -17.10720024	     48.07620673	     13.66392403	     56.84347520
      4.50416670	      2.44699777	      0.91687385	     -8.71753266	      0.19572038	      0.95863448	     -0.11291428	     10.76698036	     -5.42623013	     -4.67703881	     17.83920462	      0.31135286	      6.71138759	    -23.69791178	     -7.49999987	      5.79597606	     -2.12769283	     -3.85139959	     13.25390780	      0.23132433	      8.66709875	    -15.35690710	     -7.49999987	    -12.08293024	     -1.60795738	     -7.93472739	     -6.54167830	    -15.02691847	     44.49856949	      5.82506006	     52.31518091	     20.27816912	    -17.25421376	     48.31617073	     13.97610904	     56.72104065
      4.50833330	      2.78037771	      0.88361174	     -9.11567050	      0.19603929	      0.95925859	     -0.11271894	     10.46323486	     -5.54910810	     -5.71985846	     17.87169447	      0.31191991	      5.91911558	    -24.36125512	     -7.49999987	      5.15046024	     -2.15474855	     -4.41551235	     12.77463889	      0.22295951	      8.51296955	    -14.98912327	     -7.49999987	    -12.53772401	     -1.68733012	     -7.83333386	     -5.94687821	    -15.07943465	     45.25583826	      6.01052576	     52.17044852	     20.43704366	    -17.34012142	     48.81873553	     14.06653764	     56.70133947
      4.51250000	      2.92006924	      0.92700898	     -9.48708509	      0.19534437	      0.96072891	     -0.11265112	     10.37670254	     -5.76482612	     -6.92505728	     17.76729658	      0.31009782	      4.87847723	    -25.24414042	     -7.49999987	      4.76942905	     -2.11908703	     -5.16855868	     12.37341592	      0.21595685	      8.47814521	    -14.85610003	     -7.49999987	    -12.69598753	     -1.82046458	     -7.44127177	     -5.47089807	    -15.26991509	     50.42017338	      6.25195135	     46.42444375	     21.02012244	    -17.28027604	     52.71410078	     13.73889508	     53.72375735
      4.51666670	      2.86365691	      1.09385940	     -9.92805254	      0.19593481	      0.96077657	     -0.11197621	     10.54435443	     -6.18180753	     -8.42127360	     17.84851753	      0.31151540	      3.84295583	    -25.88904007	     -7.49999987	      4.59915915	     -1.97363993	     -5.75149944	     12.01658414	      0.20972896	      8.19786094	    -14.83286184	     -7.49999987	    -12.40670425	     -2.05989504	     -7.46831593	     -4.99090445	    -15.13046979	     49.84637704	      6.12100461	     46.93971381	     20.82938663	    -17.28148517	     52.13882811	     13.95624415	     54.06905770
